ReliefSingleLine_ttf.ufo
<glyph name="period" format="2">
	<advance width="300"/>
	<unicode hex="002E"/>
	<outline>
		<contour>
			<point x="150" y="90" type="move"/>
			<point x="150" y="-20" type="line"/>
		</contour>
	</outline>
</glyph>
<glyph name="nine" format="2">
	<advance width="567"/>
	<unicode hex="0039"/>
	<outline>
		<contour>
			<point x="207" y="0" type="move"/>
			<point x="366" y="212" type="line" smooth="yes"/>
			<point x="448" y="321"/>
			<point x="477" y="396"/>
			<point x="477" y="475" type="curve" smooth="yes"/>
			<point x="477" y="575"/>
			<point x="423" y="680"/>
			<point x="275" y="680" type="curve" smooth="yes"/>
			<point x="147" y="680"/>
			<point x="75" y="596"/>
			<point x="75" y="482" type="curve" smooth="yes"/>
			<point x="75" y="356"/>
			<point x="166" y="279"/>
			<point x="269" y="279" type="curve" smooth="yes"/>
			<point x="338" y="279"/>
			<point x="416" y="312"/>
			<point x="462" y="383" type="curve" smooth="yes"/>
		</contour>
	</outline>
</glyph>
<glyph name="colon" format="2">
	<advance width="300"/>
	<unicode hex="003A"/>
	<outline>
		<contour>
			<point x="150" y="90" type="move"/>
			<point x="150" y="-20" type="line"/>
		</contour>
		<contour>
			<point x="150" y="545" type="move"/>
			<point x="150" y="435" type="line"/>
		</contour>
	</outline>
</glyph>
<glyph name="semicolon" format="2">
	<advance width="278"/>
	<unicode hex="003B"/>
	<outline>
		<contour>
			<point x="174" y="545" type="move"/>
			<point x="174" y="435" type="line"/>
		</contour>
		<contour>
			<point x="110" y="-142" type="move"/>
			<point x="188" y="13" type="line"/>
			<point x="188" y="67" type="line"/>
			<point x="134" y="67" type="line"/>
		</contour>
	</outline>
</glyph>
<glyph name="h" format="2">
	<advance width="608"/>
	<unicode hex="0068"/>
	<outline>
		<contour>
			<point x="140" y="745" type="move"/>
			<point x="140" y="0" type="line"/>
		</contour>
		<contour>
			<point x="473" y="0" type="move"/>
			<point x="473" y="415" type="line" smooth="yes"/>
			<point x="473" y="502"/>
			<point x="433" y="555"/>
			<point x="356" y="555" type="curve" smooth="yes"/>
			<point x="267" y="555"/>
			<point x="201" y="485"/>
			<point x="140" y="415" type="curve"/>
		</contour>
	</outline>
</glyph>
<glyph name="copyright" format="2">
	<advance width="862"/>
	<unicode hex="00A9"/>
	<outline>
		<contour>
			<point x="430" y="680" type="move" smooth="yes"/>
			<point x="243" y="680"/>
			<point x="95" y="528"/>
			<point x="95" y="340" type="curve" smooth="yes"/>
			<point x="95" y="153"/>
			<point x="243" y="0"/>
			<point x="431" y="0" type="curve" smooth="yes"/>
			<point x="617" y="0"/>
			<point x="767" y="153"/>
			<point x="767" y="340" type="curve" smooth="yes"/>
			<point x="767" y="528"/>
			<point x="617" y="680"/>
			<point x="432" y="680" type="curve"/>
		</contour>
		<contour>
			<point x="560.92" y="452.09" type="move"/>
			<point x="537.98" y="505.67"/>
			<point x="495.2" y="533.6"/>
			<point x="431.96" y="533.6" type="curve" smooth="yes"/>
			<point x="325.94" y="533.6"/>
			<point x="268.9" y="456.08"/>
			<point x="268.9" y="340.37" type="curve" smooth="yes"/>
			<point x="268.9" y="212.69"/>
			<point x="338.96" y="146"/>
			<point x="431.96" y="146" type="curve" smooth="yes"/>
			<point x="504.5" y="146"/>
			<point x="552.24" y="186.47"/>
			<point x="569.6" y="233.21" type="curve"/>
		</contour>
	</outline>
</glyph>
<glyph name="guillemotleft" format="2">
	<advance width="540"/>
	<unicode hex="00AB"/>
	<outline>
		<contour>
			<point x="440" y="77" type="move"/>
			<point x="280" y="276" type="line"/>
			<point x="280" y="286" type="line"/>
			<point x="438" y="485" type="line"/>
		</contour>
		<contour>
			<point x="220" y="77" type="move"/>
			<point x="60" y="276" type="line"/>
			<point x="60" y="286" type="line"/>
			<point x="218" y="485" type="line"/>
		</contour>
	</outline>
</glyph>
<glyph name="registered" format="2">
	<advance width="862"/>
	<unicode hex="00AE"/>
	<outline>
		<contour>
			<point x="432" y="680" type="move"/>
			<point x="243" y="680"/>
			<point x="95" y="528"/>
			<point x="95" y="340" type="curve" smooth="yes"/>
			<point x="95" y="153"/>
			<point x="243" y="0"/>
			<point x="431" y="0" type="curve" smooth="yes"/>
			<point x="617" y="0"/>
			<point x="767" y="153"/>
			<point x="767" y="340" type="curve" smooth="yes"/>
			<point x="767" y="528"/>
			<point x="617" y="680"/>
			<point x="430" y="680" type="curve"/>
		</contour>
		<contour>
			<point x="333.8" y="146" type="move"/>
			<point x="333.8" y="527.9" type="line"/>
		</contour>
		<contour>
			<point x="568.78" y="146" type="move"/>
			<point x="459.66" y="342.08" type="line"/>
		</contour>
		<contour>
			<point x="333.8" y="342.08" type="move"/>
			<point x="448.5" y="342.08" type="line" smooth="yes"/>
			<point x="509.26" y="342.08"/>
			<point x="560.72" y="376.28"/>
			<point x="560.72" y="434.99" type="curve" smooth="yes"/>
			<point x="560.72" y="484.58"/>
			<point x="524.14" y="527.9"/>
			<point x="441.06" y="527.9" type="curve" smooth="yes"/>
			<point x="333.8" y="527.9" type="line" smooth="yes"/>
		</contour>
	</outline>
</glyph>
<glyph name="macron" format="2">
	<advance width="241"/>
	<unicode hex="00AF"/>
	<outline>
		<contour>
			<point x="231" y="703" type="move"/>
			<point x="10" y="703" type="line"/>
			<point x="10" y="704" type="line"/>
		</contour>
	</outline>
</glyph>
<glyph name="uni00B2" format="2">
	<advance width="275"/>
	<unicode hex="00B2"/>
	<outline>
		<contour>
			<point x="232.5" y="405" type="move"/>
			<point x="32.5" y="405" type="line"/>
			<point x="32.5" y="407" type="line"/>
			<point x="144" y="529.5" type="line" smooth="yes"/>
			<point x="182" y="571.5"/>
			<point x="220" y="611"/>
			<point x="220" y="664.5" type="curve" smooth="yes"/>
			<point x="220" y="719"/>
			<point x="180.5" y="745"/>
			<point x="137" y="745" type="curve" smooth="yes"/>
			<point x="93" y="745"/>
			<point x="56.5" y="719"/>
			<point x="42" y="676" type="curve"/>
		</contour>
	</outline>
</glyph>
<glyph name="uni00B5" format="2">
	<advance width="608"/>
	<unicode hex="00B5"/>
	<outline>
		<contour>
			<point x="140" y="-188" type="move"/>
			<point x="140" y="135" type="line"/>
		</contour>
		<contour>
			<point x="468" y="140" type="move"/>
			<point x="428" y="72"/>
			<point x="356" y="0"/>
			<point x="267" y="0" type="curve" smooth="yes"/>
			<point x="190" y="0"/>
			<point x="140" y="53"/>
			<point x="140" y="150" type="curve" smooth="yes"/>
			<point x="140" y="555" type="line"/>
		</contour>
		<contour>
			<point x="468" y="555" type="move"/>
			<point x="468" y="0" type="line"/>
		</contour>
	</outline>
</glyph>
<glyph name="ordmasculine" format="2">
	<advance width="347"/>
	<unicode hex="00BA"/>
	<outline>
		<contour>
			<point x="173" y="680" type="move"/>
			<point x="75" y="680"/>
			<point x="50" y="577"/>
			<point x="50" y="512" type="curve" smooth="yes"/>
			<point x="50" y="431"/>
			<point x="87" y="347"/>
			<point x="174" y="347" type="curve" smooth="yes"/>
			<point x="260" y="347"/>
			<point x="297" y="431"/>
			<point x="297" y="512" type="curve" smooth="yes"/>
			<point x="297" y="577"/>
			<point x="273" y="680"/>
			<point x="174" y="680" type="curve"/>
		</contour>
	</outline>
</glyph>
<glyph name="onequarter" format="2">
	<advance width="598"/>
	<unicode hex="00BC"/>
	<outline>
		<contour>
			<point x="505.5" y="0" type="move"/>
			<point x="505.5" y="334.933" type="line"/>
			<point x="500.5" y="334.933" type="line"/>
			<point x="345.5" y="81.9836" type="line"/>
			<point x="345.5" y="79.984" type="line"/>
			<point x="567.5" y="79.984" type="line"/>
		</contour>
		<contour>
			<point x="114" y="0" type="move"/>
			<point x="471" y="680" type="line"/>
		</contour>
		<contour>
			<point x="144" y="340" type="move"/>
			<point x="144" y="675" type="line"/>
			<point x="142" y="675" type="line"/>
			<point x="35" y="599.5" type="line"/>
		</contour>
	</outline>
</glyph>
<glyph name="threequarters" format="2">
	<advance width="622"/>
	<unicode hex="00BE"/>
	<outline>
		<contour>
			<point x="529.5" y="0" type="move"/>
			<point x="529.5" y="334.933" type="line"/>
			<point x="524.5" y="334.933" type="line"/>
			<point x="369.5" y="81.9836" type="line"/>
			<point x="369.5" y="79.984" type="line"/>
			<point x="591.5" y="79.984" type="line"/>
		</contour>
		<contour>
			<point x="143" y="0" type="move"/>
			<point x="500" y="680" type="line"/>
		</contour>
		<contour>
			<point x="37.5" y="401.5" type="move"/>
			<point x="47" y="364.5"/>
			<point x="83" y="339.5"/>
			<point x="131.5" y="339.5" type="curve" smooth="yes"/>
			<point x="190.5" y="339.5"/>
			<point x="228" y="376.5"/>
			<point x="228" y="427.5" type="curve" smooth="yes"/>
			<point x="228" y="472"/>
			<point x="200" y="519.5"/>
			<point x="124.5" y="519.5" type="curve"/>
			<point x="109" y="519.5" type="line"/>
		</contour>
		<contour>
			<point x="124.5" y="519.5" type="move"/>
			<point x="191.5" y="519.5"/>
			<point x="223" y="558"/>
			<point x="223" y="603" type="curve" smooth="yes"/>
			<point x="223" y="644"/>
			<point x="196" y="680"/>
			<point x="136.5" y="680" type="curve" smooth="yes"/>
			<point x="88.5" y="680"/>
			<point x="59.5" y="656"/>
			<point x="45" y="629.5" type="curve"/>
		</contour>
	</outline>
</glyph>
<glyph name="Agrave" format="2">
	<advance width="676"/>
	<unicode hex="00C0"/>
	<outline>
		<contour>
			<point x="155" y="213" type="move"/>
			<point x="522" y="213" type="line"/>
		</contour>
		<contour>
			<point x="606" y="0" type="move"/>
			<point x="342" y="675" type="line"/>
			<point x="338" y="675" type="line"/>
			<point x="70" y="0" type="line"/>
		</contour>
		<contour>
			<point x="272" y="916" type="move"/>
			<point x="407" y="783" type="line"/>
		</contour>
	</outline>
</glyph>
<glyph name="Aacute" format="2">
	<advance width="676"/>
	<unicode hex="00C1"/>
	<outline>
		<contour>
			<point x="155" y="213" type="move"/>
			<point x="522" y="213" type="line"/>
		</contour>
		<contour>
			<point x="606" y="0" type="move"/>
			<point x="342" y="675" type="line"/>
			<point x="338" y="675" type="line"/>
			<point x="70" y="0" type="line"/>
		</contour>
		<contour>
			<point x="272" y="782" type="move"/>
			<point x="407" y="915" type="line"/>
		</contour>
	</outline>
</glyph>
<glyph name="Acircumflex" format="2">
	<advance width="676"/>
	<unicode hex="00C2"/>
	<guideline x="323" y="-64" angle="0"/>
	<outline>
		<contour>
			<point x="155" y="213" type="move"/>
			<point x="522" y="213" type="line"/>
		</contour>
		<contour>
			<point x="606" y="0" type="move"/>
			<point x="342" y="675" type="line"/>
			<point x="338" y="675" type="line"/>
			<point x="70" y="0" type="line"/>
		</contour>
		<contour>
			<point x="451" y="773" type="move"/>
			<point x="342" y="899" type="line"/>
			<point x="338" y="899" type="line"/>
			<point x="229" y="773" type="line"/>
		</contour>
	</outline>
</glyph>
<glyph name="Adieresis" format="2">
	<advance width="676"/>
	<unicode hex="00C4"/>
	<outline>
		<contour>
			<point x="155" y="213" type="move"/>
			<point x="522" y="213" type="line"/>
		</contour>
		<contour>
			<point x="606" y="0" type="move"/>
			<point x="342" y="675" type="line"/>
			<point x="338" y="675" type="line"/>
			<point x="70" y="0" type="line"/>
		</contour>
		<contour>
			<point x="269" y="785" type="move"/>
			<point x="269" y="910" type="line"/>
		</contour>
		<contour>
			<point x="411" y="785" type="move"/>
			<point x="411" y="910" type="line"/>
		</contour>
	</outline>
</glyph>
<glyph name="Eacute" format="2">
	<advance width="591"/>
	<unicode hex="00C9"/>
	<outline>
		<contour>
			<point x="501" y="10" type="move"/>
			<point x="140" y="10" type="line"/>
			<point x="140" y="670" type="line"/>
			<point x="501" y="670" type="line"/>
		</contour>
		<contour>
			<point x="140" y="356" type="move"/>
			<point x="484" y="356" type="line"/>
		</contour>
		<contour>
			<point x="248" y="782" type="move"/>
			<point x="383" y="915" type="line"/>
		</contour>
	</outline>
</glyph>
<glyph name="Ecircumflex" format="2">
	<advance width="591"/>
	<unicode hex="00CA"/>
	<guideline x="286" y="-64" angle="0"/>
	<outline>
		<contour>
			<point x="501" y="10" type="move"/>
			<point x="140" y="10" type="line"/>
			<point x="140" y="670" type="line"/>
			<point x="501" y="670" type="line"/>
		</contour>
		<contour>
			<point x="140" y="356" type="move"/>
			<point x="484" y="356" type="line"/>
		</contour>
		<contour>
			<point x="427" y="773" type="move"/>
			<point x="318" y="899" type="line"/>
			<point x="314" y="899" type="line"/>
			<point x="205" y="773" type="line"/>
		</contour>
	</outline>
</glyph>
<glyph name="Edieresis" format="2">
	<advance width="591"/>
	<unicode hex="00CB"/>
	<outline>
		<contour>
			<point x="501" y="10" type="move"/>
			<point x="140" y="10" type="line"/>
			<point x="140" y="670" type="line"/>
			<point x="501" y="670" type="line"/>
		</contour>
		<contour>
			<point x="140" y="356" type="move"/>
			<point x="484" y="356" type="line"/>
		</contour>
		<contour>
			<point x="245" y="785" type="move"/>
			<point x="245" y="910" type="line"/>
		</contour>
		<contour>
			<point x="387" y="785" type="move"/>
			<point x="387" y="910" type="line"/>
		</contour>
	</outline>
</glyph>
<glyph name="Iacute" format="2">
	<advance width="280"/>
	<unicode hex="00CD"/>
	<outline>
		<contour>
			<point x="140" y="0" type="move"/>
			<point x="140" y="680" type="line"/>
		</contour>
		<contour>
			<point x="72" y="782" type="move"/>
			<point x="207" y="915" type="line"/>
		</contour>
	</outline>
</glyph>
<glyph name="Ograve" format="2">
	<advance width="716"/>
	<unicode hex="00D2"/>
	<outline>
		<contour>
			<point x="357" y="680" type="move"/>
			<point x="168" y="680"/>
			<point x="95" y="501"/>
			<point x="95" y="341" type="curve" smooth="yes"/>
			<point x="95" y="207"/>
			<point x="147" y="0"/>
			<point x="358" y="0" type="curve" smooth="yes"/>
			<point x="569" y="0"/>
			<point x="621" y="207"/>
			<point x="621" y="341" type="curve" smooth="yes"/>
			<point x="621" y="501"/>
			<point x="548" y="680"/>
			<point x="359" y="680" type="curve"/>
		</contour>
		<contour>
			<point x="290" y="916" type="move"/>
			<point x="425" y="783" type="line"/>
		</contour>
	</outline>
</glyph>
<glyph name="Oacute" format="2">
	<advance width="716"/>
	<unicode hex="00D3"/>
	<outline>
		<contour>
			<point x="357" y="680" type="move"/>
			<point x="168" y="680"/>
			<point x="95" y="501"/>
			<point x="95" y="341" type="curve" smooth="yes"/>
			<point x="95" y="207"/>
			<point x="147" y="0"/>
			<point x="358" y="0" type="curve" smooth="yes"/>
			<point x="569" y="0"/>
			<point x="621" y="207"/>
			<point x="621" y="341" type="curve" smooth="yes"/>
			<point x="621" y="501"/>
			<point x="548" y="680"/>
			<point x="359" y="680" type="curve"/>
		</contour>
		<contour>
			<point x="290" y="782" type="move"/>
			<point x="425" y="915" type="line"/>
		</contour>
	</outline>
</glyph>
<glyph name="Otilde" format="2">
	<advance width="716"/>
	<unicode hex="00D5"/>
	<outline>
		<contour>
			<point x="357" y="680" type="move"/>
			<point x="168" y="680"/>
			<point x="95" y="501"/>
			<point x="95" y="341" type="curve" smooth="yes"/>
			<point x="95" y="207"/>
			<point x="147" y="0"/>
			<point x="358" y="0" type="curve" smooth="yes"/>
			<point x="569" y="0"/>
			<point x="621" y="207"/>
			<point x="621" y="341" type="curve" smooth="yes"/>
			<point x="621" y="501"/>
			<point x="548" y="680"/>
			<point x="359" y="680" type="curve"/>
		</contour>
		<contour>
			<point x="219" y="812" type="move"/>
			<point x="241" y="849"/>
			<point x="268" y="860"/>
			<point x="293" y="860" type="curve" smooth="yes"/>
			<point x="340" y="860"/>
			<point x="370" y="812"/>
			<point x="423" y="812" type="curve" smooth="yes"/>
			<point x="448" y="812"/>
			<point x="474" y="821"/>
			<point x="497" y="859" type="curve"/>
		</contour>
	</outline>
</glyph>
<glyph name="Uacute" format="2">
	<advance width="694"/>
	<unicode hex="00DA"/>
	<outline>
		<contour>
			<point x="130" y="680" type="move"/>
			<point x="130" y="245" type="line" smooth="yes"/>
			<point x="130" y="87"/>
			<point x="218" y="0"/>
			<point x="347" y="0" type="curve" smooth="yes"/>
			<point x="482" y="0"/>
			<point x="564" y="87"/>
			<point x="564" y="245" type="curve" smooth="yes"/>
			<point x="564" y="680" type="line"/>
		</contour>
		<contour>
			<point x="278" y="782" type="move"/>
			<point x="413" y="915" type="line"/>
		</contour>
	</outline>
</glyph>
<glyph name="egrave" format="2">
	<advance width="561"/>
	<unicode hex="00E8"/>
	<guideline x="272" y="-64" angle="0"/>
	<guideline y="78"/>
	<guideline y="68"/>
	<guideline y="50"/>
	<outline>
		<contour>
			<point x="92" y="305" type="move"/>
			<point x="476" y="305" type="line"/>
			<point x="476" y="417"/>
			<point x="439" y="555"/>
			<point x="294" y="555" type="curve" smooth="yes"/>
			<point x="169" y="555"/>
			<point x="90" y="451"/>
			<point x="90" y="275" type="curve" smooth="yes"/>
			<point x="90" y="116"/>
			<point x="154" y="0"/>
			<point x="297" y="0" type="curve" smooth="yes"/>
			<point x="391" y="0"/>
			<point x="443" y="51"/>
			<point x="468" y="110" type="curve" smooth="yes"/>
		</contour>
		<contour>
			<point x="227" y="791" type="move"/>
			<point x="362" y="658" type="line"/>
		</contour>
	</outline>
</glyph>
<glyph name="igrave" format="2">
	<advance width="280"/>
	<unicode hex="00EC"/>
	<outline>
		<contour>
			<point x="140" y="0" type="move"/>
			<point x="140" y="555" type="line"/>
		</contour>
		<contour>
			<point x="72" y="791" type="move"/>
			<point x="207" y="658" type="line"/>
		</contour>
	</outline>
</glyph>
<glyph name="icircumflex" format="2">
	<advance width="280"/>
	<unicode hex="00EE"/>
	<outline>
		<contour>
			<point x="140" y="0" type="move"/>
			<point x="140" y="555" type="line"/>
		</contour>
		<contour>
			<point x="251" y="648" type="move"/>
			<point x="142" y="774" type="line"/>
			<point x="138" y="774" type="line"/>
			<point x="29" y="648" type="line"/>
		</contour>
	</outline>
</glyph>
<glyph name="ntilde" format="2">
	<advance width="608"/>
	<unicode hex="00F1"/>
	<outline>
		<contour>
			<point x="140" y="555" type="move"/>
			<point x="140" y="0" type="line"/>
		</contour>
		<contour>
			<point x="473" y="0" type="move"/>
			<point x="473" y="415" type="line" smooth="yes"/>
			<point x="473" y="502"/>
			<point x="433" y="555"/>
			<point x="356" y="555" type="curve" smooth="yes"/>
			<point x="267" y="555"/>
			<point x="201" y="485"/>
			<point x="140" y="415" type="curve"/>
		</contour>
		<contour>
			<point x="175" y="687" type="move"/>
			<point x="197" y="724"/>
			<point x="224" y="735"/>
			<point x="249" y="735" type="curve" smooth="yes"/>
			<point x="296" y="735"/>
			<point x="326" y="687"/>
			<point x="379" y="687" type="curve" smooth="yes"/>
			<point x="404" y="687"/>
			<point x="430" y="696"/>
			<point x="453" y="734" type="curve"/>
		</contour>
	</outline>
</glyph>
<glyph name="divide" format="2">
	<advance width="635"/>
	<unicode hex="00F7"/>
	<outline>
		<contour>
			<point x="317" y="589" type="move"/>
			<point x="317" y="479" type="line"/>
		</contour>
		<contour>
			<point x="317" y="193" type="move"/>
			<point x="317" y="83" type="line"/>
		</contour>
		<contour>
			<point x="85" y="332" type="move"/>
			<point x="550" y="332" type="line"/>
		</contour>
	</outline>
</glyph>
<glyph name="uacute" format="2">
	<advance width="603"/>
	<unicode hex="00FA"/>
	<outline>
		<contour>
			<point x="463" y="140" type="move"/>
			<point x="423" y="72"/>
			<point x="351" y="0"/>
			<point x="262" y="0" type="curve" smooth="yes"/>
			<point x="185" y="0"/>
			<point x="135" y="53"/>
			<point x="135" y="150" type="curve" smooth="yes"/>
			<point x="135" y="555" type="line"/>
		</contour>
		<contour>
			<point x="463" y="555" type="move"/>
			<point x="463" y="0" type="line"/>
		</contour>
		<contour>
			<point x="234" y="657" type="move"/>
			<point x="369" y="790" type="line"/>
		</contour>
	</outline>
</glyph>
<glyph name="ucircumflex" format="2">
	<advance width="603"/>
	<unicode hex="00FB"/>
	<outline>
		<contour>
			<point x="463" y="140" type="move"/>
			<point x="423" y="72"/>
			<point x="351" y="0"/>
			<point x="262" y="0" type="curve" smooth="yes"/>
			<point x="185" y="0"/>
			<point x="135" y="53"/>
			<point x="135" y="150" type="curve" smooth="yes"/>
			<point x="135" y="555" type="line"/>
		</contour>
		<contour>
			<point x="463" y="555" type="move"/>
			<point x="463" y="0" type="line"/>
		</contour>
		<contour>
			<point x="413" y="648" type="move"/>
			<point x="304" y="774" type="line"/>
			<point x="300" y="774" type="line"/>
			<point x="191" y="648" type="line"/>
		</contour>
	</outline>
</glyph>
<glyph name="Abreve" format="2">
	<advance width="676"/>
	<unicode hex="0102"/>
	<outline>
		<contour>
			<point x="155" y="213" type="move"/>
			<point x="522" y="213" type="line"/>
		</contour>
		<contour>
			<point x="606" y="0" type="move"/>
			<point x="342" y="675" type="line"/>
			<point x="338" y="675" type="line"/>
			<point x="70" y="0" type="line"/>
		</contour>
		<contour>
			<point x="220" y="887" type="move"/>
			<point x="220" y="832"/>
			<point x="272" y="805"/>
			<point x="338" y="805" type="curve" smooth="yes"/>
			<point x="404" y="805"/>
			<point x="460" y="831"/>
			<point x="460" y="886" type="curve" smooth="yes"/>
		</contour>
	</outline>
</glyph>
<glyph name="Aogonek" format="2">
	<advance width="676"/>
	<unicode hex="0104"/>
	<outline>
		<contour>
			<point x="155" y="213" type="move"/>
			<point x="522" y="213" type="line"/>
		</contour>
		<contour>
			<point x="606" y="0" type="move"/>
			<point x="342" y="675" type="line"/>
			<point x="338" y="675" type="line"/>
			<point x="70" y="0" type="line"/>
		</contour>
		<contour>
			<point x="647" y="-184" type="move" smooth="yes"/>
			<point x="634" y="-192"/>
			<point x="609" y="-200"/>
			<point x="585" y="-200" type="curve" smooth="yes"/>
			<point x="535" y="-200"/>
			<point x="508" y="-175"/>
			<point x="508" y="-130" type="curve" smooth="yes"/>
			<point x="508" y="-87"/>
			<point x="559" y="-38"/>
			<point x="606" y="0" type="curve"/>
		</contour>
	</outline>
</glyph>
<glyph name="ccircumflex" format="2">
	<advance width="531"/>
	<unicode hex="0109"/>
	<outline>
		<contour>
			<point x="445" y="450" type="move"/>
			<point x="423" y="504"/>
			<point x="372" y="555"/>
			<point x="289" y="555" type="curve" smooth="yes"/>
			<point x="163" y="555"/>
			<point x="90" y="439"/>
			<point x="90" y="271" type="curve" smooth="yes"/>
			<point x="90" y="107"/>
			<point x="160" y="0"/>
			<point x="290" y="0" type="curve" smooth="yes"/>
			<point x="368" y="0"/>
			<point x="411" y="38"/>
			<point x="446" y="98" type="curve" smooth="yes"/>
		</contour>
		<contour>
			<point x="401" y="648" type="move"/>
			<point x="292" y="774" type="line"/>
			<point x="288" y="774" type="line"/>
			<point x="179" y="648" type="line"/>
		</contour>
	</outline>
</glyph>
<glyph name="dcaron" format="2">
	<advance width="613"/>
	<unicode hex="010F"/>
	<outline>
		<contour>
			<point x="473" y="745" type="move"/>
			<point x="473" y="0" type="line"/>
		</contour>
		<contour>
			<point x="473" y="421" type="move"/>
			<point x="419" y="517"/>
			<point x="352" y="555"/>
			<point x="279" y="555" type="curve" smooth="yes"/>
			<point x="157" y="555"/>
			<point x="90" y="447"/>
			<point x="90" y="279" type="curve" smooth="yes"/>
			<point x="90" y="132"/>
			<point x="144" y="0"/>
			<point x="280" y="0" type="curve" smooth="yes"/>
			<point x="365" y="0"/>
			<point x="430" y="52"/>
			<point x="473" y="137" type="curve"/>
		</contour>
		<contour>
			<point x="566" y="578" type="move"/>
			<point x="623" y="661" type="line"/>
			<point x="623" y="745" type="line"/>
		</contour>
	</outline>
</glyph>
<glyph name="Emacron" format="2">
	<advance width="591"/>
	<unicode hex="0112"/>
	<outline>
		<contour>
			<point x="501" y="10" type="move"/>
			<point x="140" y="10" type="line"/>
			<point x="140" y="670" type="line"/>
			<point x="501" y="670" type="line"/>
		</contour>
		<contour>
			<point x="140" y="356" type="move"/>
			<point x="484" y="356" type="line"/>
		</contour>
		<contour>
			<point x="426" y="828" type="move"/>
			<point x="205" y="828" type="line"/>
		</contour>
	</outline>
</glyph>
<glyph name="ebreve" format="2">
	<advance width="561"/>
	<unicode hex="0115"/>
	<outline>
		<contour>
			<point x="92" y="305" type="move"/>
			<point x="476" y="305" type="line"/>
			<point x="476" y="417"/>
			<point x="439" y="555"/>
			<point x="294" y="555" type="curve" smooth="yes"/>
			<point x="169" y="555"/>
			<point x="90" y="451"/>
			<point x="90" y="275" type="curve" smooth="yes"/>
			<point x="90" y="116"/>
			<point x="154" y="0"/>
			<point x="297" y="0" type="curve" smooth="yes"/>
			<point x="391" y="0"/>
			<point x="443" y="51"/>
			<point x="468" y="110" type="curve" smooth="yes"/>
		</contour>
		<contour>
			<point x="175" y="762" type="move"/>
			<point x="175" y="707"/>
			<point x="227" y="680"/>
			<point x="293" y="680" type="curve" smooth="yes"/>
			<point x="359" y="680"/>
			<point x="415" y="706"/>
			<point x="415" y="761" type="curve" smooth="yes"/>
		</contour>
	</outline>
</glyph>
<glyph name="Edotaccent" format="2">
	<advance width="591"/>
	<unicode hex="0116"/>
	<outline>
		<contour>
			<point x="501" y="10" type="move"/>
			<point x="140" y="10" type="line"/>
			<point x="140" y="670" type="line"/>
			<point x="501" y="670" type="line"/>
		</contour>
		<contour>
			<point x="140" y="356" type="move"/>
			<point x="484" y="356" type="line"/>
		</contour>
		<contour>
			<point x="316" y="803" type="move"/>
			<point x="316" y="910" type="line"/>
		</contour>
	</outline>
</glyph>
<glyph name="eogonek" format="2">
	<advance width="561"/>
	<unicode hex="0119"/>
	<outline>
		<contour>
			<point x="92" y="305" type="move"/>
			<point x="476" y="305" type="line"/>
			<point x="476" y="417"/>
			<point x="439" y="555"/>
			<point x="294" y="555" type="curve" smooth="yes"/>
			<point x="169" y="555"/>
			<point x="90" y="451"/>
			<point x="90" y="275" type="curve" smooth="yes"/>
			<point x="90" y="116"/>
			<point x="154" y="0"/>
			<point x="297" y="0" type="curve" smooth="yes"/>
			<point x="391" y="0"/>
			<point x="443" y="51"/>
			<point x="468" y="110" type="curve" smooth="yes"/>
		</contour>
		<contour>
			<point x="453" y="-149" type="move" smooth="yes"/>
			<point x="440" y="-157"/>
			<point x="415" y="-165"/>
			<point x="391" y="-165" type="curve" smooth="yes"/>
			<point x="341" y="-165"/>
			<point x="314" y="-140"/>
			<point x="314" y="-95" type="curve" smooth="yes"/>
			<point x="314" y="-52"/>
			<point x="365" y="-3"/>
			<point x="412" y="35" type="curve"/>
		</contour>
	</outline>
</glyph>
<glyph name="Ecaron" format="2">
	<advance width="591"/>
	<unicode hex="011A"/>
	<outline>
		<contour>
			<point x="501" y="10" type="move"/>
			<point x="140" y="10" type="line"/>
			<point x="140" y="670" type="line"/>
			<point x="501" y="670" type="line"/>
		</contour>
		<contour>
			<point x="140" y="356" type="move"/>
			<point x="484" y="356" type="line"/>
		</contour>
		<contour>
			<point x="205" y="901" type="move"/>
			<point x="314" y="775" type="line"/>
			<point x="318" y="775" type="line"/>
			<point x="427" y="901" type="line"/>
		</contour>
	</outline>
</glyph>
<glyph name="gcircumflex" format="2">
	<advance width="608"/>
	<unicode hex="011D"/>
	<outline>
		<contour>
			<point x="473" y="421" type="move"/>
			<point x="419" y="517"/>
			<point x="352" y="555"/>
			<point x="280" y="555" type="curve" smooth="yes"/>
			<point x="157" y="555"/>
			<point x="90" y="447"/>
			<point x="90" y="289" type="curve" smooth="yes"/>
			<point x="90" y="147"/>
			<point x="144" y="20"/>
			<point x="280" y="20" type="curve" smooth="yes"/>
			<point x="365" y="20"/>
			<point x="430" y="68"/>
			<point x="473" y="147" type="curve"/>
		</contour>
		<contour>
			<point x="127" y="-107" type="move"/>
			<point x="161" y="-164"/>
			<point x="218" y="-190"/>
			<point x="292" y="-190" type="curve" smooth="yes"/>
			<point x="407" y="-190"/>
			<point x="473" y="-126"/>
			<point x="473" y="-2" type="curve" smooth="yes"/>
			<point x="473" y="555" type="line"/>
		</contour>
		<contour>
			<point x="419" y="648" type="move"/>
			<point x="310" y="774" type="line"/>
			<point x="306" y="774" type="line"/>
			<point x="197" y="648" type="line"/>
		</contour>
	</outline>
</glyph>
<glyph name="Hcircumflex" format="2">
	<advance width="706"/>
	<unicode hex="0124"/>
	<outline>
		<contour>
			<point x="140" y="0" type="move"/>
			<point x="140" y="680" type="line"/>
		</contour>
		<contour>
			<point x="140" y="365" type="move"/>
			<point x="566" y="365" type="line"/>
		</contour>
		<contour>
			<point x="566" y="0" type="move"/>
			<point x="566" y="680" type="line"/>
		</contour>
		<contour>
			<point x="464" y="773" type="move"/>
			<point x="355" y="899" type="line"/>
			<point x="351" y="899" type="line"/>
			<point x="242" y="773" type="line"/>
		</contour>
	</outline>
</glyph>
<glyph name="hcircumflex" format="2">
	<advance width="608"/>
	<unicode hex="0125"/>
	<outline>
		<contour>
			<point x="140" y="745" type="move"/>
			<point x="140" y="0" type="line"/>
		</contour>
		<contour>
			<point x="473" y="0" type="move"/>
			<point x="473" y="415" type="line" smooth="yes"/>
			<point x="473" y="502"/>
			<point x="433" y="555"/>
			<point x="356" y="555" type="curve" smooth="yes"/>
			<point x="267" y="555"/>
			<point x="201" y="485"/>
			<point x="140" y="415" type="curve"/>
		</contour>
		<contour>
			<point x="415" y="838" type="move"/>
			<point x="306" y="964" type="line"/>
			<point x="302" y="964" type="line"/>
			<point x="193" y="838" type="line"/>
		</contour>
	</outline>
</glyph>
<glyph name="hbar" format="2">
	<advance width="608"/>
	<unicode hex="0127"/>
	<outline>
		<contour>
			<point x="48" y="644" type="move"/>
			<point x="276" y="644" type="line"/>
		</contour>
		<contour>
			<point x="140" y="745" type="move"/>
			<point x="140" y="0" type="line"/>
		</contour>
		<contour>
			<point x="473" y="0" type="move"/>
			<point x="473" y="415" type="line" smooth="yes"/>
			<point x="473" y="502"/>
			<point x="433" y="555"/>
			<point x="356" y="555" type="curve" smooth="yes"/>
			<point x="267" y="555"/>
			<point x="201" y="485"/>
			<point x="140" y="415" type="curve"/>
		</contour>
	</outline>
</glyph>
<glyph name="Itilde" format="2">
	<advance width="280"/>
	<unicode hex="0128"/>
	<outline>
		<contour>
			<point x="140" y="0" type="move"/>
			<point x="140" y="680" type="line"/>
		</contour>
		<contour>
			<point x="1" y="812" type="move"/>
			<point x="23" y="849"/>
			<point x="50" y="860"/>
			<point x="75" y="860" type="curve" smooth="yes"/>
			<point x="122" y="860"/>
			<point x="152" y="812"/>
			<point x="205" y="812" type="curve" smooth="yes"/>
			<point x="230" y="812"/>
			<point x="256" y="821"/>
			<point x="279" y="859" type="curve"/>
		</contour>
	</outline>
</glyph>
<glyph name="itilde" format="2">
	<advance width="280"/>
	<unicode hex="0129"/>
	<outline>
		<contour>
			<point x="140" y="0" type="move"/>
			<point x="140" y="555" type="line"/>
		</contour>
		<contour>
			<point x="1" y="687" type="move"/>
			<point x="23" y="724"/>
			<point x="50" y="735"/>
			<point x="75" y="735" type="curve" smooth="yes"/>
			<point x="122" y="735"/>
			<point x="152" y="687"/>
			<point x="205" y="687" type="curve" smooth="yes"/>
			<point x="230" y="687"/>
			<point x="256" y="696"/>
			<point x="279" y="734" type="curve"/>
		</contour>
	</outline>
</glyph>
<glyph name="Ibreve" format="2">
	<advance width="280"/>
	<unicode hex="012C"/>
	<outline>
		<contour>
			<point x="140" y="0" type="move"/>
			<point x="140" y="680" type="line"/>
		</contour>
		<contour>
			<point x="20" y="887" type="move"/>
			<point x="20" y="832"/>
			<point x="72" y="805"/>
			<point x="138" y="805" type="curve" smooth="yes"/>
			<point x="204" y="805"/>
			<point x="260" y="831"/>
			<point x="260" y="886" type="curve" smooth="yes"/>
		</contour>
	</outline>
</glyph>
<glyph name="jcircumflex" format="2">
	<advance width="293"/>
	<unicode hex="0135"/>
	<outline>
		<contour>
			<point x="0" y="-165" type="move"/>
			<point x="15" y="-179"/>
			<point x="39" y="-190"/>
			<point x="72" y="-190" type="curve" smooth="yes"/>
			<point x="135" y="-190"/>
			<point x="158" y="-152"/>
			<point x="158" y="-83" type="curve" smooth="yes"/>
			<point x="158" y="555" type="line"/>
		</contour>
		<contour>
			<point x="269" y="648" type="move"/>
			<point x="160" y="774" type="line"/>
			<point x="156" y="774" type="line"/>
			<point x="47" y="648" type="line"/>
		</contour>
	</outline>
</glyph>
<glyph name="uni0136" format="2">
	<advance width="577"/>
	<unicode hex="0136"/>
	<outline>
		<contour>
			<point x="140" y="0" type="move"/>
			<point x="140" y="680" type="line"/>
		</contour>
		<contour>
			<point x="527" y="0" type="move"/>
			<point x="191" y="359" type="line"/>
			<point x="503" y="680" type="line"/>
		</contour>
		<contour>
			<point x="247" y="-240" type="move"/>
			<point x="325" y="-85" type="line"/>
		</contour>
	</outline>
</glyph>
<glyph name="uni0137" format="2">
	<advance width="528"/>
	<unicode hex="0137"/>
	<outline>
		<contour>
			<point x="140" y="745" type="move"/>
			<point x="140" y="0" type="line"/>
		</contour>
		<contour>
			<point x="478" y="0" type="move"/>
			<point x="200" y="302" type="line"/>
			<point x="456" y="555" type="line"/>
		</contour>
		<contour>
			<point x="240" y="-240" type="move"/>
			<point x="318" y="-85" type="line"/>
		</contour>
	</outline>
</glyph>
<glyph name="lacute" format="2">
	<advance width="307"/>
	<unicode hex="013A"/>
	<outline>
		<contour>
			<point x="252" y="4" type="move"/>
			<point x="245" y="2"/>
			<point x="234" y="0"/>
			<point x="221" y="0" type="curve" smooth="yes"/>
			<point x="164" y="0"/>
			<point x="135" y="35"/>
			<point x="135" y="107" type="curve" smooth="yes"/>
			<point x="135" y="745" type="line"/>
		</contour>
		<contour>
			<point x="134" y="847" type="move"/>
			<point x="269" y="980" type="line"/>
		</contour>
	</outline>
</glyph>
<glyph name="uni013C" format="2">
	<advance width="307"/>
	<unicode hex="013C"/>
	<outline>
		<contour>
			<point x="252" y="4" type="move"/>
			<point x="245" y="2"/>
			<point x="234" y="0"/>
			<point x="221" y="0" type="curve" smooth="yes"/>
			<point x="164" y="0"/>
			<point x="135" y="35"/>
			<point x="135" y="107" type="curve" smooth="yes"/>
			<point x="135" y="745" type="line"/>
		</contour>
		<contour>
			<point x="145" y="-240" type="move"/>
			<point x="223" y="-85" type="line"/>
		</contour>
	</outline>
</glyph>
<glyph name="ldot" format="2">
	<advance width="352"/>
	<unicode hex="0140"/>
	<outline>
		<contour>
			<point x="252" y="4" type="move"/>
			<point x="245" y="2"/>
			<point x="234" y="0"/>
			<point x="221" y="0" type="curve" smooth="yes"/>
			<point x="164" y="0"/>
			<point x="135" y="35"/>
			<point x="135" y="107" type="curve" smooth="yes"/>
			<point x="135" y="745" type="line"/>
		</contour>
		<contour>
			<point x="317" y="375" type="move"/>
			<point x="317" y="265" type="line"/>
		</contour>
	</outline>
</glyph>
<glyph name="lslash" format="2">
	<advance width="307"/>
	<unicode hex="0142"/>
	<outline>
		<contour>
			<point x="35" y="327" type="move"/>
			<point x="257" y="407" type="line"/>
		</contour>
		<contour>
			<point x="252" y="4" type="move"/>
			<point x="245" y="2"/>
			<point x="234" y="0"/>
			<point x="221" y="0" type="curve" smooth="yes"/>
			<point x="164" y="0"/>
			<point x="135" y="35"/>
			<point x="135" y="107" type="curve" smooth="yes"/>
			<point x="135" y="745" type="line"/>
		</contour>
	</outline>
</glyph>
<glyph name="Nacute" format="2">
	<advance width="740"/>
	<unicode hex="0143"/>
	<outline>
		<contour>
			<point x="140" y="0" type="move"/>
			<point x="140" y="675" type="line"/>
			<point x="144" y="675" type="line"/>
			<point x="596" y="5" type="line"/>
			<point x="600" y="5" type="line"/>
			<point x="599" y="680" type="line"/>
		</contour>
		<contour>
			<point x="302" y="782" type="move"/>
			<point x="437" y="915" type="line"/>
		</contour>
	</outline>
</glyph>
<glyph name="Ncaron" format="2">
	<advance width="740"/>
	<unicode hex="0147"/>
	<outline>
		<contour>
			<point x="140" y="0" type="move"/>
			<point x="140" y="675" type="line"/>
			<point x="144" y="675" type="line"/>
			<point x="596" y="5" type="line"/>
			<point x="600" y="5" type="line"/>
			<point x="599" y="680" type="line"/>
		</contour>
		<contour>
			<point x="259" y="901" type="move"/>
			<point x="368" y="775" type="line"/>
			<point x="372" y="775" type="line"/>
			<point x="481" y="901" type="line"/>
		</contour>
	</outline>
</glyph>
<glyph name="eng" format="2">
	<advance width="608"/>
	<unicode hex="014B"/>
	<outline>
		<contour>
			<point x="315" y="-163" type="move"/>
			<point x="330" y="-177"/>
			<point x="354" y="-188"/>
			<point x="387" y="-188" type="curve" smooth="yes"/>
			<point x="450" y="-188"/>
			<point x="473" y="-150"/>
			<point x="473" y="-81" type="curve" smooth="yes"/>
			<point x="473" y="0" type="line"/>
		</contour>
		<contour>
			<point x="140" y="555" type="move"/>
			<point x="140" y="0" type="line"/>
		</contour>
		<contour>
			<point x="473" y="0" type="move"/>
			<point x="473" y="415" type="line" smooth="yes"/>
			<point x="473" y="502"/>
			<point x="433" y="555"/>
			<point x="356" y="555" type="curve" smooth="yes"/>
			<point x="267" y="555"/>
			<point x="201" y="485"/>
			<point x="140" y="415" type="curve"/>
		</contour>
	</outline>
</glyph>
<glyph name="Obreve" format="2">
	<advance width="716"/>
	<unicode hex="014E"/>
	<outline>
		<contour>
			<point x="357" y="680" type="move"/>
			<point x="168" y="680"/>
			<point x="95" y="501"/>
			<point x="95" y="341" type="curve" smooth="yes"/>
			<point x="95" y="207"/>
			<point x="147" y="0"/>
			<point x="358" y="0" type="curve" smooth="yes"/>
			<point x="569" y="0"/>
			<point x="621" y="207"/>
			<point x="621" y="341" type="curve" smooth="yes"/>
			<point x="621" y="501"/>
			<point x="548" y="680"/>
			<point x="359" y="680" type="curve"/>
		</contour>
		<contour>
			<point x="238" y="887" type="move"/>
			<point x="238" y="832"/>
			<point x="290" y="805"/>
			<point x="356" y="805" type="curve" smooth="yes"/>
			<point x="422" y="805"/>
			<point x="478" y="831"/>
			<point x="478" y="886" type="curve" smooth="yes"/>
		</contour>
	</outline>
</glyph>
<glyph name="obreve" format="2">
	<advance width="592"/>
	<unicode hex="014F"/>
	<outline>
		<contour>
			<point x="295" y="555" type="move"/>
			<point x="131" y="555"/>
			<point x="90" y="384"/>
			<point x="90" y="275" type="curve" smooth="yes"/>
			<point x="90" y="140"/>
			<point x="152" y="0"/>
			<point x="296" y="0" type="curve" smooth="yes"/>
			<point x="440" y="0"/>
			<point x="502" y="140"/>
			<point x="502" y="275" type="curve" smooth="yes"/>
			<point x="502" y="384"/>
			<point x="461" y="555"/>
			<point x="297" y="555" type="curve"/>
		</contour>
		<contour>
			<point x="175" y="762" type="move"/>
			<point x="175" y="707"/>
			<point x="227" y="680"/>
			<point x="293" y="680" type="curve" smooth="yes"/>
			<point x="359" y="680"/>
			<point x="415" y="706"/>
			<point x="415" y="761" type="curve" smooth="yes"/>
		</contour>
	</outline>
</glyph>
<glyph name="uni0157" format="2">
	<advance width="394"/>
	<unicode hex="0157"/>
	<outline>
		<contour>
			<point x="140" y="555" type="move"/>
			<point x="140" y="0" type="line"/>
		</contour>
		<contour>
			<point x="140" y="415" type="move"/>
			<point x="211" y="497"/>
			<point x="277" y="555"/>
			<point x="338" y="555" type="curve" smooth="yes"/>
		</contour>
		<contour>
			<point x="61" y="-240" type="move"/>
			<point x="139" y="-85" type="line"/>
		</contour>
	</outline>
</glyph>
<glyph name="Rcaron" format="2">
	<advance width="604"/>
	<unicode hex="0158"/>
	<outline>
		<contour>
			<point x="140" y="0" type="move"/>
			<point x="140" y="670" type="line"/>
		</contour>
		<contour>
			<point x="519" y="0" type="move"/>
			<point x="343" y="344" type="line"/>
		</contour>
		<contour>
			<point x="140" y="344" type="move"/>
			<point x="325" y="344" type="line" smooth="yes"/>
			<point x="423" y="344"/>
			<point x="506" y="404"/>
			<point x="506" y="507" type="curve" smooth="yes"/>
			<point x="506" y="594"/>
			<point x="447" y="670"/>
			<point x="313" y="670" type="curve" smooth="yes"/>
			<point x="140" y="670" type="line" smooth="yes"/>
		</contour>
		<contour>
			<point x="189" y="901" type="move"/>
			<point x="298" y="775" type="line"/>
			<point x="302" y="775" type="line"/>
			<point x="411" y="901" type="line"/>
		</contour>
	</outline>
</glyph>
<glyph name="Scircumflex" format="2">
	<advance width="566"/>
	<unicode hex="015C"/>
	<outline>
		<contour>
			<point x="95" y="109" type="move"/>
			<point x="123" y="43"/>
			<point x="193" y="0"/>
			<point x="285" y="0" type="curve" smooth="yes"/>
			<point x="404" y="0"/>
			<point x="476" y="74"/>
			<point x="476" y="163" type="curve" smooth="yes"/>
			<point x="476" y="364"/>
			<point x="109" y="334"/>
			<point x="109" y="526" type="curve" smooth="yes"/>
			<point x="109" y="605"/>
			<point x="171" y="680"/>
			<point x="293" y="680" type="curve" smooth="yes"/>
			<point x="379" y="680"/>
			<point x="432" y="642"/>
			<point x="456" y="590" type="curve"/>
		</contour>
		<contour>
			<point x="409" y="773" type="move"/>
			<point x="300" y="899" type="line"/>
			<point x="296" y="899" type="line"/>
			<point x="187" y="773" type="line"/>
		</contour>
	</outline>
</glyph>
<glyph name="Scedilla" format="2">
	<advance width="566"/>
	<unicode hex="015E"/>
	<outline>
		<contour>
			<point x="95" y="109" type="move"/>
			<point x="123" y="43"/>
			<point x="193" y="0"/>
			<point x="285" y="0" type="curve" smooth="yes"/>
			<point x="404" y="0"/>
			<point x="476" y="74"/>
			<point x="476" y="163" type="curve" smooth="yes"/>
			<point x="476" y="364"/>
			<point x="109" y="334"/>
			<point x="109" y="526" type="curve" smooth="yes"/>
			<point x="109" y="605"/>
			<point x="171" y="680"/>
			<point x="293" y="680" type="curve" smooth="yes"/>
			<point x="379" y="680"/>
			<point x="432" y="642"/>
			<point x="456" y="590" type="curve"/>
		</contour>
		<contour>
			<point x="212" y="-177" type="move" smooth="yes"/>
			<point x="225" y="-184"/>
			<point x="244" y="-191"/>
			<point x="273" y="-191" type="curve" smooth="yes"/>
			<point x="325" y="-191"/>
			<point x="357" y="-168"/>
			<point x="357" y="-132" type="curve" smooth="yes"/>
			<point x="357" y="-95"/>
			<point x="326" y="-78"/>
			<point x="272" y="-78" type="curve" smooth="yes"/>
			<point x="246" y="-78" type="line"/>
			<point x="292" y="0" type="line"/>
		</contour>
	</outline>
</glyph>
<glyph name="Tbar" format="2">
	<advance width="520"/>
	<unicode hex="0166"/>
	<outline>
		<contour>
			<point x="120" y="398" type="move"/>
			<point x="400" y="398" type="line"/>
		</contour>
		<contour>
			<point x="260" y="0" type="move"/>
			<point x="260" y="670" type="line"/>
		</contour>
		<contour>
			<point x="40" y="670" type="move"/>
			<point x="480" y="670" type="line"/>
		</contour>
	</outline>
</glyph>
<glyph name="utilde" format="2">
	<advance width="603"/>
	<unicode hex="0169"/>
	<outline>
		<contour>
			<point x="463" y="140" type="move"/>
			<point x="423" y="72"/>
			<point x="351" y="0"/>
			<point x="262" y="0" type="curve" smooth="yes"/>
			<point x="185" y="0"/>
			<point x="135" y="53"/>
			<point x="135" y="150" type="curve" smooth="yes"/>
			<point x="135" y="555" type="line"/>
		</contour>
		<contour>
			<point x="463" y="555" type="move"/>
			<point x="463" y="0" type="line"/>
		</contour>
		<contour>
			<point x="163" y="687" type="move"/>
			<point x="185" y="724"/>
			<point x="212" y="735"/>
			<point x="237" y="735" type="curve" smooth="yes"/>
			<point x="284" y="735"/>
			<point x="314" y="687"/>
			<point x="367" y="687" type="curve" smooth="yes"/>
			<point x="392" y="687"/>
			<point x="418" y="696"/>
			<point x="441" y="734" type="curve"/>
		</contour>
	</outline>
</glyph>
<glyph name="Umacron" format="2">
	<advance width="694"/>
	<unicode hex="016A"/>
	<outline>
		<contour>
			<point x="130" y="680" type="move"/>
			<point x="130" y="245" type="line" smooth="yes"/>
			<point x="130" y="87"/>
			<point x="218" y="0"/>
			<point x="347" y="0" type="curve" smooth="yes"/>
			<point x="482" y="0"/>
			<point x="564" y="87"/>
			<point x="564" y="245" type="curve" smooth="yes"/>
			<point x="564" y="680" type="line"/>
		</contour>
		<contour>
			<point x="456" y="828" type="move"/>
			<point x="235" y="828" type="line"/>
		</contour>
	</outline>
</glyph>
<glyph name="umacron" format="2">
	<advance width="603"/>
	<unicode hex="016B"/>
	<outline>
		<contour>
			<point x="463" y="140" type="move"/>
			<point x="423" y="72"/>
			<point x="351" y="0"/>
			<point x="262" y="0" type="curve" smooth="yes"/>
			<point x="185" y="0"/>
			<point x="135" y="53"/>
			<point x="135" y="150" type="curve" smooth="yes"/>
			<point x="135" y="555" type="line"/>
		</contour>
		<contour>
			<point x="463" y="555" type="move"/>
			<point x="463" y="0" type="line"/>
		</contour>
		<contour>
			<point x="412" y="703" type="move"/>
			<point x="191" y="703" type="line"/>
		</contour>
	</outline>
</glyph>
<glyph name="Ubreve" format="2">
	<advance width="694"/>
	<unicode hex="016C"/>
	<outline>
		<contour>
			<point x="130" y="680" type="move"/>
			<point x="130" y="245" type="line" smooth="yes"/>
			<point x="130" y="87"/>
			<point x="218" y="0"/>
			<point x="347" y="0" type="curve" smooth="yes"/>
			<point x="482" y="0"/>
			<point x="564" y="87"/>
			<point x="564" y="245" type="curve" smooth="yes"/>
			<point x="564" y="680" type="line"/>
		</contour>
		<contour>
			<point x="226" y="887" type="move"/>
			<point x="226" y="832"/>
			<point x="278" y="805"/>
			<point x="344" y="805" type="curve" smooth="yes"/>
			<point x="410" y="805"/>
			<point x="466" y="831"/>
			<point x="466" y="886" type="curve" smooth="yes"/>
		</contour>
	</outline>
</glyph>
<glyph name="ubreve" format="2">
	<advance width="603"/>
	<unicode hex="016D"/>
	<outline>
		<contour>
			<point x="463" y="140" type="move"/>
			<point x="423" y="72"/>
			<point x="351" y="0"/>
			<point x="262" y="0" type="curve" smooth="yes"/>
			<point x="185" y="0"/>
			<point x="135" y="53"/>
			<point x="135" y="150" type="curve" smooth="yes"/>
			<point x="135" y="555" type="line"/>
		</contour>
		<contour>
			<point x="463" y="555" type="move"/>
			<point x="463" y="0" type="line"/>
		</contour>
		<contour>
			<point x="182" y="762" type="move"/>
			<point x="182" y="707"/>
			<point x="234" y="680"/>
			<point x="300" y="680" type="curve" smooth="yes"/>
			<point x="366" y="680"/>
			<point x="422" y="706"/>
			<point x="422" y="761" type="curve" smooth="yes"/>
		</contour>
	</outline>
</glyph>
<glyph name="uogonek" format="2">
	<advance width="603"/>
	<unicode hex="0173"/>
	<outline>
		<contour>
			<point x="463" y="140" type="move"/>
			<point x="423" y="72"/>
			<point x="351" y="0"/>
			<point x="262" y="0" type="curve" smooth="yes"/>
			<point x="185" y="0"/>
			<point x="135" y="53"/>
			<point x="135" y="150" type="curve" smooth="yes"/>
			<point x="135" y="555" type="line"/>
		</contour>
		<contour>
			<point x="463" y="555" type="move"/>
			<point x="463" y="0" type="line"/>
		</contour>
		<contour>
			<point x="504" y="-184" type="move" smooth="yes"/>
			<point x="491" y="-192"/>
			<point x="466" y="-200"/>
			<point x="442" y="-200" type="curve" smooth="yes"/>
			<point x="392" y="-200"/>
			<point x="365" y="-175"/>
			<point x="365" y="-130" type="curve" smooth="yes"/>
			<point x="365" y="-87"/>
			<point x="416" y="-38"/>
			<point x="463" y="0" type="curve"/>
		</contour>
	</outline>
</glyph>
<glyph name="Ycircumflex" format="2">
	<advance width="575"/>
	<unicode hex="0176"/>
	<outline>
		<contour>
			<point x="285" y="0" type="move"/>
			<point x="285" y="296" type="line"/>
		</contour>
		<contour>
			<point x="50" y="680" type="move"/>
			<point x="285" y="296" type="line"/>
			<point x="525" y="680" type="line"/>
		</contour>
		<contour>
			<point x="402" y="773" type="move"/>
			<point x="293" y="899" type="line"/>
			<point x="289" y="899" type="line"/>
			<point x="180" y="773" type="line"/>
		</contour>
	</outline>
</glyph>
<glyph name="Zacute" format="2">
	<advance width="609"/>
	<unicode hex="0179"/>
	<outline>
		<contour>
			<point x="509" y="10" type="move"/>
			<point x="111" y="10" type="line"/>
			<point x="111" y="14" type="line"/>
			<point x="498" y="666" type="line"/>
			<point x="498" y="670" type="line"/>
			<point x="110" y="670" type="line"/>
		</contour>
		<contour>
			<point x="232" y="782" type="move"/>
			<point x="367" y="915" type="line"/>
		</contour>
	</outline>
</glyph>
<glyph name="zcaron" format="2">
	<advance width="530"/>
	<unicode hex="017E"/>
	<outline>
		<contour>
			<point x="450" y="10" type="move"/>
			<point x="90" y="10" type="line"/>
			<point x="90" y="14" type="line"/>
			<point x="435" y="541" type="line"/>
			<point x="435" y="545" type="line"/>
			<point x="93" y="545" type="line"/>
		</contour>
		<contour>
			<point x="148" y="776" type="move"/>
			<point x="257" y="650" type="line"/>
			<point x="261" y="650" type="line"/>
			<point x="370" y="776" type="line"/>
		</contour>
	</outline>
</glyph>
<glyph name="caron" format="2">
	<advance width="242"/>
	<unicode hex="02C7"/>
	<outline>
		<contour>
			<point x="10" y="776" type="move"/>
			<point x="119" y="650" type="line"/>
			<point x="123" y="650" type="line"/>
			<point x="232" y="776" type="line"/>
		</contour>
	</outline>
</glyph>
<glyph name="gravecomb" format="2">
	<advance width="155"/>
	<unicode hex="0300"/>
	<outline>
		<contour>
			<point x="10" y="791" type="move"/>
			<point x="145" y="658" type="line"/>
		</contour>
	</outline>
</glyph>
<glyph name="acutecomb" format="2">
	<advance width="155"/>
	<unicode hex="0301"/>
	<outline>
		<contour>
			<point x="10" y="657" type="move"/>
			<point x="145" y="790" type="line"/>
		</contour>
	</outline>
</glyph>
<glyph name="uni0308" format="2">
	<advance width="162"/>
	<unicode hex="0308"/>
	<outline>
		<contour>
			<point x="10" y="660" type="move"/>
			<point x="10" y="785" type="line"/>
		</contour>
		<contour>
			<point x="152" y="660" type="move"/>
			<point x="152" y="785" type="line"/>
		</contour>
	</outline>
</glyph>
<glyph name="wgrave" format="2">
	<advance width="817"/>
	<unicode hex="1E81"/>
	<outline>
		<contour>
			<point x="70" y="555" type="move"/>
			<point x="237" y="0" type="line"/>
			<point x="241" y="0" type="line"/>
			<point x="408" y="545" type="line"/>
			<point x="412" y="545" type="line"/>
			<point x="584" y="0" type="line"/>
			<point x="588" y="0" type="line"/>
			<point x="747" y="555" type="line"/>
		</contour>
		<contour>
			<point x="341" y="791" type="move"/>
			<point x="476" y="658" type="line"/>
		</contour>
	</outline>
</glyph>
<glyph name="ygrave" format="2">
	<advance width="538"/>
	<unicode hex="1EF3"/>
	<outline>
		<contour>
			<point x="276" y="-16" type="move"/>
			<point x="70" y="555" type="line"/>
		</contour>
		<contour>
			<point x="103" y="-175" type="move"/>
			<point x="119" y="-185"/>
			<point x="138" y="-190"/>
			<point x="156" y="-190" type="curve" smooth="yes"/>
			<point x="213" y="-190"/>
			<point x="242" y="-138"/>
			<point x="276" y="-16" type="curve"/>
			<point x="478" y="555" type="line"/>
		</contour>
		<contour>
			<point x="201" y="791" type="move"/>
			<point x="336" y="658" type="line"/>
		</contour>
	</outline>
</glyph>
<glyph name="quoteleft" format="2">
	<advance width="218"/>
	<unicode hex="2018"/>
	<outline>
		<contour>
			<point x="138" y="764" type="move"/>
			<point x="60" y="609" type="line"/>
			<point x="60" y="555" type="line"/>
			<point x="114" y="555" type="line"/>
		</contour>
	</outline>
</glyph>
<glyph name="quotedblbase" format="2">
	<advance width="433"/>
	<unicode hex="201E"/>
	<outline>
		<contour>
			<point x="90" y="-142" type="move"/>
			<point x="168" y="13" type="line"/>
			<point x="168" y="67" type="line"/>
			<point x="114" y="67" type="line"/>
		</contour>
		<contour>
			<point x="265" y="-142" type="move"/>
			<point x="343" y="13" type="line"/>
			<point x="343" y="67" type="line"/>
			<point x="289" y="67" type="line"/>
		</contour>
	</outline>
</glyph>
<glyph name="perthousand" format="2">
	<advance width="1017"/>
	<unicode hex="2030"/>
	<outline>
		<contour>
			<point x="178" y="0" type="move"/>
			<point x="535" y="680" type="line"/>
		</contour>
		<contour>
			<point x="180" y="680" type="move"/>
			<point x="106" y="680"/>
			<point x="70" y="603.5"/>
			<point x="70" y="508.5" type="curve" smooth="yes"/>
			<point x="70" y="412.5"/>
			<point x="106" y="340"/>
			<point x="180.5" y="340" type="curve" smooth="yes"/>
			<point x="255" y="340"/>
			<point x="291" y="412.5"/>
			<point x="291" y="508.5" type="curve" smooth="yes"/>
			<point x="291" y="603.5"/>
			<point x="255" y="680"/>
			<point x="181" y="680" type="curve"/>
		</contour>
		<contour>
			<point x="536" y="340" type="move"/>
			<point x="462" y="340"/>
			<point x="426" y="263.5"/>
			<point x="426" y="168.5" type="curve" smooth="yes"/>
			<point x="426" y="72.5"/>
			<point x="462" y="0"/>
			<point x="536.5" y="0" type="curve" smooth="yes"/>
			<point x="611" y="0"/>
			<point x="647" y="72.5"/>
			<point x="647" y="168.5" type="curve" smooth="yes"/>
			<point x="647" y="263.5"/>
			<point x="611" y="340"/>
			<point x="537" y="340" type="curve"/>
		</contour>
		<contour>
			<point x="836" y="340" type="move"/>
			<point x="762" y="340"/>
			<point x="726" y="263.5"/>
			<point x="726" y="168.5" type="curve" smooth="yes"/>
			<point x="726" y="72.5"/>
			<point x="762" y="0"/>
			<point x="836.5" y="0" type="curve" smooth="yes"/>
			<point x="911" y="0"/>
			<point x="947" y="72.5"/>
			<point x="947" y="168.5" type="curve" smooth="yes"/>
			<point x="947" y="263.5"/>
			<point x="911" y="340"/>
			<point x="837" y="340" type="curve"/>
		</contour>
	</outline>
</glyph>
<glyph name="uni2074" format="2">
	<advance width="285"/>
	<unicode hex="2074"/>
	<outline>
		<contour>
			<point x="192.5" y="405" type="move"/>
			<point x="192.5" y="739.933" type="line"/>
			<point x="187.5" y="739.933" type="line"/>
			<point x="32.5" y="486.9836" type="line"/>
			<point x="32.5" y="484.984" type="line"/>
			<point x="254.5" y="484.984" type="line"/>
		</contour>
	</outline>
</glyph>
<glyph name="uni2076" format="2">
	<advance width="276"/>
	<unicode hex="2076"/>
	<outline>
		<contour>
			<point x="180" y="745" type="move"/>
			<point x="100.5" y="639" type="line" smooth="yes"/>
			<point x="59.5" y="584.5"/>
			<point x="45" y="547"/>
			<point x="45" y="507.5" type="curve" smooth="yes"/>
			<point x="45" y="457.5"/>
			<point x="72" y="405"/>
			<point x="146" y="405" type="curve" smooth="yes"/>
			<point x="210" y="405"/>
			<point x="246" y="447"/>
			<point x="246" y="504" type="curve" smooth="yes"/>
			<point x="246" y="567"/>
			<point x="200.5" y="605.5"/>
			<point x="149" y="605.5" type="curve" smooth="yes"/>
			<point x="114.5" y="605.5"/>
			<point x="75.5" y="589"/>
			<point x="52.5" y="553.5" type="curve" smooth="yes"/>
		</contour>
	</outline>
</glyph>
<glyph name="uni2077" format="2">
	<advance width="248"/>
	<unicode hex="2077"/>
	<outline>
		<contour>
			<point x="63" y="405" type="move"/>
			<point x="222.5" y="738" type="line"/>
			<point x="222.5" y="740" type="line"/>
			<point x="20" y="740" type="line"/>
		</contour>
	</outline>
</glyph>
<glyph name="uni2078" format="2">
	<advance width="280"/>
	<unicode hex="2078"/>
	<outline>
		<contour>
			<point x="139" y="745" type="move"/>
			<point x="188.5" y="745"/>
			<point x="223" y="714"/>
			<point x="223" y="673.5" type="curve" smooth="yes"/>
			<point x="223" y="581.5"/>
			<point x="45" y="590"/>
			<point x="45" y="486" type="curve" smooth="yes"/>
			<point x="45" y="433.5"/>
			<point x="90.5" y="405"/>
			<point x="139" y="405" type="curve" smooth="yes"/>
			<point x="187" y="405"/>
			<point x="234.5" y="433"/>
			<point x="234.5" y="486" type="curve" smooth="yes"/>
			<point x="234.5" y="589"/>
			<point x="56" y="580"/>
			<point x="56" y="673.5" type="curve" smooth="yes"/>
			<point x="56" y="710"/>
			<point x="83" y="745"/>
			<point x="138" y="745" type="curve"/>
		</contour>
	</outline>
</glyph>
<glyph name="arrowleft" format="2">
	<advance width="919"/>
	<unicode hex="2190"/>
	<outline>
		<contour>
			<point x="112" y="371" type="move"/>
			<point x="809" y="371" type="line"/>
		</contour>
		<contour>
			<point x="394" y="677" type="move"/>
			<point x="110" y="371" type="line"/>
			<point x="394" y="65" type="line"/>
		</contour>
	</outline>
</glyph>
<glyph name="uni2196" format="2">
	<advance width="746"/>
	<unicode hex="2196"/>
	<outline>
		<contour>
			<point x="636" y="62" type="move"/>
			<point x="163" y="574" type="line"/>
		</contour>
		<contour>
			<point x="579" y="574" type="move"/>
			<point x="162" y="575" type="line"/>
			<point x="130" y="159" type="line"/>
		</contour>
	</outline>
</glyph>
<glyph name="uni2197" format="2">
	<advance width="746"/>
	<unicode hex="2197"/>
	<guideline x="35" y="548" angle="0"/>
	<outline>
		<contour>
			<point x="582.6347" y="573.7869" type="move"/>
			<point x="109.6505" y="61.8404" type="line"/>
		</contour>
		<contour>
			<point x="616.0265" y="159.0063" type="move"/>
			<point x="583.9919" y="575.2559" type="line"/>
			<point x="166.5125" y="574.3095" type="line"/>
		</contour>
	</outline>
</glyph>
<glyph name="fl" format="2">
	<advance width="645"/>
	<unicode hex="FB02"/>
	<guideline x="48" y="697" angle="0"/>
	<outline>
		<contour>
			<point x="150" y="0" type="move"/>
			<point x="150" y="619" type="line" smooth="yes"/>
			<point x="150" y="696"/>
			<point x="187" y="745"/>
			<point x="258" y="745" type="curve" smooth="yes"/>
			<point x="285" y="745"/>
			<point x="309" y="738"/>
			<point x="328" y="724" type="curve"/>
		</contour>
		<contour>
			<point x="50" y="500" type="move"/>
			<point x="297" y="500" type="line"/>
		</contour>
		<contour>
			<point x="590" y="4" type="move"/>
			<point x="583" y="2"/>
			<point x="572" y="0"/>
			<point x="559" y="0" type="curve" smooth="yes"/>
			<point x="502" y="0"/>
			<point x="473" y="35"/>
			<point x="473" y="107" type="curve" smooth="yes"/>
			<point x="473" y="745" type="line"/>
		</contour>
	</outline>
</glyph>
<glyph name="Ldot.ss04" format="2">
	<advance width="508"/>
	<outline>
		<contour>
			<point x="458" y="10" type="move"/>
			<point x="140" y="10" type="line"/>
			<point x="140" y="680" type="line"/>
		</contour>
		<contour>
			<point x="398" y="372" type="move"/>
			<point x="375" y="372"/>
			<point x="358" y="354"/>
			<point x="358" y="331" type="curve" smooth="yes"/>
			<point x="358" y="308"/>
			<point x="376" y="290"/>
			<point x="399" y="290" type="curve" smooth="yes"/>
			<point x="422" y="290"/>
			<point x="439" y="308"/>
			<point x="439" y="331" type="curve" smooth="yes"/>
			<point x="439" y="354"/>
			<point x="422" y="372"/>
			<point x="400" y="372" type="curve"/>
		</contour>
	</outline>
</glyph>
<glyph name="Ldot.ss05" format="2">
	<advance width="508"/>
	<outline>
		<contour>
			<point x="458" y="10" type="move"/>
			<point x="140" y="10" type="line"/>
			<point x="140" y="680" type="line"/>
		</contour>
		<contour>
			<point x="412" y="300" type="move"/>
			<point x="412" y="367" type="line"/>
			<point x="358" y="367" type="line"/>
		</contour>
	</outline>
</glyph>
<glyph name="eight.subs" format="2">
	<advance width="280"/>
	<outline>
		<contour>
			<point x="139" y="275" type="move"/>
			<point x="188.5" y="275"/>
			<point x="223" y="244"/>
			<point x="223" y="203.5" type="curve" smooth="yes"/>
			<point x="223" y="111.5"/>
			<point x="45" y="120"/>
			<point x="45" y="16" type="curve" smooth="yes"/>
			<point x="45" y="-36.5"/>
			<point x="90.5" y="-65"/>
			<point x="139" y="-65" type="curve" smooth="yes"/>
			<point x="187" y="-65"/>
			<point x="234.5" y="-37"/>
			<point x="234.5" y="16" type="curve" smooth="yes"/>
			<point x="234.5" y="119"/>
			<point x="56" y="110"/>
			<point x="56" y="203.5" type="curve" smooth="yes"/>
			<point x="56" y="240"/>
			<point x="83" y="275"/>
			<point x="138" y="275" type="curve"/>
		</contour>
	</outline>
</glyph>
<glyph name="ellipsis.ss04" format="2">
	<advance width="927"/>
	<outline>
		<contour>
			<point x="150" y="72" type="move"/>
			<point x="127" y="72"/>
			<point x="110" y="54"/>
			<point x="110" y="31" type="curve" smooth="yes"/>
			<point x="110" y="8"/>
			<point x="128" y="-10"/>
			<point x="151" y="-10" type="curve" smooth="yes"/>
			<point x="174" y="-10"/>
			<point x="191" y="8"/>
			<point x="191" y="31" type="curve" smooth="yes"/>
			<point x="191" y="54"/>
			<point x="174" y="72"/>
			<point x="152" y="72" type="curve"/>
		</contour>
		<contour>
			<point x="463" y="72" type="move"/>
			<point x="440" y="72"/>
			<point x="423" y="54"/>
			<point x="423" y="31" type="curve" smooth="yes"/>
			<point x="423" y="8"/>
			<point x="441" y="-10"/>
			<point x="464" y="-10" type="curve" smooth="yes"/>
			<point x="487" y="-10"/>
			<point x="504" y="8"/>
			<point x="504" y="31" type="curve" smooth="yes"/>
			<point x="504" y="54"/>
			<point x="487" y="72"/>
			<point x="465" y="72" type="curve"/>
		</contour>
		<contour>
			<point x="776" y="72" type="move"/>
			<point x="753" y="72"/>
			<point x="736" y="54"/>
			<point x="736" y="31" type="curve" smooth="yes"/>
			<point x="736" y="8"/>
			<point x="754" y="-10"/>
			<point x="777" y="-10" type="curve" smooth="yes"/>
			<point x="800" y="-10"/>
			<point x="817" y="8"/>
			<point x="817" y="31" type="curve" smooth="yes"/>
			<point x="817" y="54"/>
			<point x="800" y="72"/>
			<point x="778" y="72" type="curve"/>
		</contour>
	</outline>
</glyph>
<glyph name="exclam.ss05" format="2">
	<advance width="314"/>
	<outline>
		<contour>
			<point x="160" y="180" type="move"/>
			<point x="160" y="680" type="line"/>
		</contour>
		<contour>
			<point x="184" y="0" type="move"/>
			<point x="184" y="67" type="line"/>
			<point x="130" y="67" type="line"/>
		</contour>
	</outline>
</glyph>
<glyph name="exclamdown.ss04" format="2">
	<advance width="341"/>
	<outline>
		<contour>
			<point x="169" y="375" type="move"/>
			<point x="169" y="-125" type="line"/>
		</contour>
		<contour>
			<point x="171" y="483" type="move"/>
			<point x="194" y="483"/>
			<point x="211" y="501"/>
			<point x="211" y="524" type="curve" smooth="yes"/>
			<point x="211" y="547"/>
			<point x="193" y="565"/>
			<point x="170" y="565" type="curve" smooth="yes"/>
			<point x="147" y="565"/>
			<point x="130" y="547"/>
			<point x="130" y="524" type="curve" smooth="yes"/>
			<point x="130" y="501"/>
			<point x="147" y="483"/>
			<point x="169" y="483" type="curve"/>
		</contour>
	</outline>
</glyph>
<glyph name="five.dnom" format="2">
	<advance width="279"/>
	<outline>
		<contour>
			<point x="47.5" y="69" type="move" smooth="yes"/>
			<point x="63.5" y="24.5"/>
			<point x="96.5" y="0"/>
			<point x="138" y="0" type="curve" smooth="yes"/>
			<point x="192.5" y="0"/>
			<point x="233.5" y="42"/>
			<point x="233.5" y="104" type="curve" smooth="yes"/>
			<point x="233.5" y="162.5"/>
			<point x="196.5" y="207.5"/>
			<point x="137" y="207.5" type="curve" smooth="yes"/>
			<point x="114" y="207.5"/>
			<point x="84.5" y="201"/>
			<point x="63.5" y="188" type="curve"/>
			<point x="68.5" y="335" type="line"/>
			<point x="224.5" y="335" type="line"/>
		</contour>
	</outline>
</glyph>
<glyph name="five.subs" format="2">
	<advance width="279"/>
	<outline>
		<contour>
			<point x="47.5" y="4" type="move" smooth="yes"/>
			<point x="63.5" y="-40.5"/>
			<point x="96.5" y="-65"/>
			<point x="138" y="-65" type="curve" smooth="yes"/>
			<point x="192.5" y="-65"/>
			<point x="233.5" y="-23"/>
			<point x="233.5" y="39" type="curve" smooth="yes"/>
			<point x="233.5" y="97.5"/>
			<point x="196.5" y="142.5"/>
			<point x="137" y="142.5" type="curve" smooth="yes"/>
			<point x="114" y="142.5"/>
			<point x="84.5" y="136"/>
			<point x="63.5" y="123" type="curve"/>
			<point x="68.5" y="270" type="line"/>
			<point x="224.5" y="270" type="line"/>
		</contour>
	</outline>
</glyph>
<glyph name="ldot.ss04" format="2">
	<advance width="373"/>
	<outline>
		<contour>
			<point x="252" y="4" type="move"/>
			<point x="245" y="2"/>
			<point x="234" y="0"/>
			<point x="221" y="0" type="curve" smooth="yes"/>
			<point x="164" y="0"/>
			<point x="135" y="35"/>
			<point x="135" y="107" type="curve" smooth="yes"/>
			<point x="135" y="745" type="line"/>
		</contour>
		<contour>
			<point x="327" y="357" type="move"/>
			<point x="304" y="357"/>
			<point x="287" y="339"/>
			<point x="287" y="316" type="curve" smooth="yes"/>
			<point x="287" y="293"/>
			<point x="305" y="275"/>
			<point x="328" y="275" type="curve" smooth="yes"/>
			<point x="351" y="275"/>
			<point x="368" y="293"/>
			<point x="368" y="316" type="curve" smooth="yes"/>
			<point x="368" y="339"/>
			<point x="351" y="357"/>
			<point x="329" y="357" type="curve"/>
		</contour>
	</outline>
</glyph>
<glyph name="minus.dnom" format="2">
	<advance width="332"/>
	<outline>
		<contour>
			<point x="42.5" y="166" type="move"/>
			<point x="275" y="166" type="line"/>
		</contour>
	</outline>
</glyph>
<glyph name="multiply.dnom" format="2">
	<advance width="270"/>
	<outline>
		<contour>
			<point x="230" y="66" type="move"/>
			<point x="40" y="266" type="line"/>
		</contour>
		<contour>
			<point x="40" y="66.5" type="move"/>
			<point x="230" y="266.5" type="line"/>
		</contour>
	</outline>
</glyph>
<glyph name="nine.subs" format="2">
	<advance width="276"/>
	<outline>
		<contour>
			<point x="95.5" y="-65" type="move"/>
			<point x="175" y="41" type="line" smooth="yes"/>
			<point x="216" y="95.5"/>
			<point x="230.5" y="133"/>
			<point x="230.5" y="172.5" type="curve" smooth="yes"/>
			<point x="230.5" y="222.5"/>
			<point x="203.5" y="275"/>
			<point x="129.5" y="275" type="curve" smooth="yes"/>
			<point x="65.5" y="275"/>
			<point x="29.5" y="233"/>
			<point x="29.5" y="176" type="curve" smooth="yes"/>
			<point x="29.5" y="113"/>
			<point x="75" y="74.5"/>
			<point x="126.5" y="74.5" type="curve" smooth="yes"/>
			<point x="161" y="74.5"/>
			<point x="200" y="91"/>
			<point x="223" y="126.5" type="curve" smooth="yes"/>
		</contour>
	</outline>
</glyph>
<glyph name="one.dnom" format="2">
	<advance width="224"/>
	<outline>
		<contour>
			<point x="144" y="0" type="move"/>
			<point x="144" y="335" type="line"/>
			<point x="142" y="335" type="line"/>
			<point x="35" y="259.5" type="line"/>
		</contour>
	</outline>
</glyph>
<glyph name="one.numr" format="2">
	<advance width="224"/>
	<outline>
		<contour>
			<point x="144" y="340" type="move"/>
			<point x="144" y="675" type="line"/>
			<point x="142" y="675" type="line"/>
			<point x="35" y="599.5" type="line"/>
		</contour>
	</outline>
</glyph>
<glyph name="parenleft.numr" format="2">
	<advance width="150"/>
	<outline>
		<contour>
			<point x="115" y="282" type="move" smooth="yes"/>
			<point x="79.5" y="339"/>
			<point x="50" y="409.5"/>
			<point x="50" y="493.5" type="curve" smooth="yes"/>
			<point x="50" y="577.5"/>
			<point x="72" y="643"/>
			<point x="115" y="705.5" type="curve"/>
		</contour>
	</outline>
</glyph>
<glyph name="parenleft.subs" format="2">
	<advance width="150"/>
	<outline>
		<contour>
			<point x="115" y="-123" type="move" smooth="yes"/>
			<point x="79.5" y="-66"/>
			<point x="50" y="4.5"/>
			<point x="50" y="88.5" type="curve" smooth="yes"/>
			<point x="50" y="172.5"/>
			<point x="72" y="238"/>
			<point x="115" y="300.5" type="curve"/>
		</contour>
	</outline>
</glyph>
<glyph name="parenleft.sups" format="2">
	<advance width="150"/>
	<outline>
		<contour>
			<point x="115" y="347" type="move" smooth="yes"/>
			<point x="79.5" y="404"/>
			<point x="50" y="474.5"/>
			<point x="50" y="558.5" type="curve" smooth="yes"/>
			<point x="50" y="642.5"/>
			<point x="72" y="708"/>
			<point x="115" y="770.5" type="curve"/>
		</contour>
	</outline>
</glyph>
<glyph name="period.dnom" format="2">
	<advance width="150"/>
	<outline>
		<contour>
			<point x="75" y="45" type="move"/>
			<point x="75" y="-10" type="line"/>
		</contour>
	</outline>
</glyph>
<glyph name="period.subs" format="2">
	<advance width="111"/>
	<outline>
		<contour>
			<point x="55" y="-20" type="move"/>
			<point x="55" y="-75" type="line"/>
		</contour>
	</outline>
</glyph>
<glyph name="period.sups" format="2">
	<advance width="111"/>
	<outline>
		<contour>
			<point x="55" y="450" type="move"/>
			<point x="55" y="395" type="line"/>
		</contour>
	</outline>
</glyph>
<glyph name="period.sups.ss04" format="2">
	<advance width="151"/>
	<outline>
		<contour>
			<point x="75" y="441" type="move"/>
			<point x="63.5" y="441"/>
			<point x="55" y="432"/>
			<point x="55" y="420.5" type="curve" smooth="yes"/>
			<point x="55" y="409"/>
			<point x="64" y="400"/>
			<point x="75.5" y="400" type="curve" smooth="yes"/>
			<point x="87" y="400"/>
			<point x="95.5" y="409"/>
			<point x="95.5" y="420.5" type="curve" smooth="yes"/>
			<point x="95.5" y="432"/>
			<point x="87" y="441"/>
			<point x="76" y="441" type="curve"/>
		</contour>
	</outline>
</glyph>
<glyph name="periodcentered.loclCAT.case.ss05" format="2">
	<advance width="0"/>
	<outline>
		<contour>
			<point x="-96" y="300" type="move"/>
			<point x="-96" y="367" type="line"/>
			<point x="-150" y="367" type="line"/>
		</contour>
	</outline>
</glyph>
<glyph name="periodcentered.loclCAT" format="2">
	<advance width="45"/>
	<outline>
		<contour>
			<point x="10" y="375" type="move"/>
			<point x="10" y="265" type="line"/>
		</contour>
	</outline>
</glyph>
<glyph name="periodcentered.loclCAT.ss04" format="2">
	<advance width="66"/>
	<outline>
		<contour>
			<point x="20" y="357" type="move"/>
			<point x="-3" y="357"/>
			<point x="-20" y="339"/>
			<point x="-20" y="316" type="curve" smooth="yes"/>
			<point x="-20" y="293"/>
			<point x="-2" y="275"/>
			<point x="21" y="275" type="curve" smooth="yes"/>
			<point x="44" y="275"/>
			<point x="61" y="293"/>
			<point x="61" y="316" type="curve" smooth="yes"/>
			<point x="61" y="339"/>
			<point x="44" y="357"/>
			<point x="22" y="357" type="curve"/>
		</contour>
	</outline>
</glyph>
<glyph name="plus.dnom" format="2">
	<advance width="332"/>
	<outline>
		<contour>
			<point x="158" y="47.5" type="move"/>
			<point x="158" y="280" type="line"/>
		</contour>
		<contour>
			<point x="42.5" y="166" type="move"/>
			<point x="275" y="166" type="line"/>
		</contour>
	</outline>
</glyph>
<glyph name="questiondown.ss04" format="2">
	<advance width="493"/>
	<outline>
		<contour>
			<point x="268" y="375" type="move"/>
			<point x="268" y="313" type="line" smooth="yes"/>
			<point x="268" y="262"/>
			<point x="251" y="230"/>
			<point x="191" y="178" type="curve" smooth="yes"/>
			<point x="151" y="143"/>
			<point x="110" y="92"/>
			<point x="110" y="21" type="curve" smooth="yes"/>
			<point x="110" y="-62"/>
			<point x="166" y="-125"/>
			<point x="263" y="-125" type="curve" smooth="yes"/>
			<point x="329" y="-125"/>
			<point x="397" y="-95"/>
			<point x="423" y="-20" type="curve"/>
		</contour>
		<contour>
			<point x="264" y="483" type="move"/>
			<point x="287" y="483"/>
			<point x="304" y="501"/>
			<point x="304" y="524" type="curve" smooth="yes"/>
			<point x="304" y="547"/>
			<point x="286" y="565"/>
			<point x="263" y="565" type="curve" smooth="yes"/>
			<point x="240" y="565"/>
			<point x="223" y="547"/>
			<point x="223" y="524" type="curve" smooth="yes"/>
			<point x="223" y="501"/>
			<point x="240" y="483"/>
			<point x="262" y="483" type="curve"/>
		</contour>
	</outline>
</glyph>
<glyph name="questiondown.ss05" format="2">
	<advance width="493"/>
	<outline>
		<contour>
			<point x="268" y="375" type="move"/>
			<point x="268" y="313" type="line" smooth="yes"/>
			<point x="268" y="262"/>
			<point x="251" y="230"/>
			<point x="191" y="178" type="curve" smooth="yes"/>
			<point x="151" y="143"/>
			<point x="110" y="92"/>
			<point x="110" y="21" type="curve" smooth="yes"/>
			<point x="110" y="-62"/>
			<point x="166" y="-125"/>
			<point x="263" y="-125" type="curve" smooth="yes"/>
			<point x="329" y="-125"/>
			<point x="397" y="-95"/>
			<point x="423" y="-20" type="curve"/>
		</contour>
		<contour>
			<point x="240" y="555" type="move"/>
			<point x="240" y="488" type="line"/>
			<point x="294" y="488" type="line"/>
		</contour>
	</outline>
</glyph>
<glyph name="six.numr" format="2">
	<advance width="276"/>
	<outline>
		<contour>
			<point x="180" y="680" type="move"/>
			<point x="100.5" y="574" type="line" smooth="yes"/>
			<point x="59.5" y="519.5"/>
			<point x="45" y="482"/>
			<point x="45" y="442.5" type="curve" smooth="yes"/>
			<point x="45" y="392.5"/>
			<point x="72" y="340"/>
			<point x="146" y="340" type="curve" smooth="yes"/>
			<point x="210" y="340"/>
			<point x="246" y="382"/>
			<point x="246" y="439" type="curve" smooth="yes"/>
			<point x="246" y="502"/>
			<point x="200.5" y="540.5"/>
			<point x="149" y="540.5" type="curve" smooth="yes"/>
			<point x="114.5" y="540.5"/>
			<point x="75.5" y="524"/>
			<point x="52.5" y="488.5" type="curve" smooth="yes"/>
		</contour>
	</outline>
</glyph>
<glyph name="six.subs" format="2">
	<advance width="276"/>
	<outline>
		<contour>
			<point x="180" y="275" type="move"/>
			<point x="100.5" y="169" type="line" smooth="yes"/>
			<point x="59.5" y="114.5"/>
			<point x="45" y="77"/>
			<point x="45" y="37.5" type="curve" smooth="yes"/>
			<point x="45" y="-12.5"/>
			<point x="72" y="-65"/>
			<point x="146" y="-65" type="curve" smooth="yes"/>
			<point x="210" y="-65"/>
			<point x="246" y="-23"/>
			<point x="246" y="34" type="curve" smooth="yes"/>
			<point x="246" y="97"/>
			<point x="200.5" y="135.5"/>
			<point x="149" y="135.5" type="curve" smooth="yes"/>
			<point x="114.5" y="135.5"/>
			<point x="75.5" y="119"/>
			<point x="52.5" y="83.5" type="curve" smooth="yes"/>
		</contour>
	</outline>
</glyph>
<glyph name="two.numr" format="2">
	<advance width="275"/>
	<outline>
		<contour>
			<point x="232.5" y="340" type="move"/>
			<point x="32.5" y="340" type="line"/>
			<point x="32.5" y="342" type="line"/>
			<point x="144" y="464.5" type="line" smooth="yes"/>
			<point x="182" y="506.5"/>
			<point x="220" y="546"/>
			<point x="220" y="599.5" type="curve" smooth="yes"/>
			<point x="220" y="654"/>
			<point x="180.5" y="680"/>
			<point x="137" y="680" type="curve" smooth="yes"/>
			<point x="93" y="680"/>
			<point x="56.5" y="654"/>
			<point x="42" y="611" type="curve"/>
		</contour>
	</outline>
</glyph>
<glyph name="two.subs" format="2">
	<advance width="275"/>
	<outline>
		<contour>
			<point x="232.5" y="-65" type="move"/>
			<point x="32.5" y="-65" type="line"/>
			<point x="32.5" y="-63" type="line"/>
			<point x="144" y="59.5" type="line" smooth="yes"/>
			<point x="182" y="101.5"/>
			<point x="220" y="141"/>
			<point x="220" y="194.5" type="curve" smooth="yes"/>
			<point x="220" y="249"/>
			<point x="180.5" y="275"/>
			<point x="137" y="275" type="curve" smooth="yes"/>
			<point x="93" y="275"/>
			<point x="56.5" y="249"/>
			<point x="42" y="206" type="curve"/>
		</contour>
	</outline>
</glyph>
<glyph name="uni004A0301" format="2">
	<advance width="361"/>
	<outline>
		<contour>
			<point x="50" y="29" type="move" smooth="yes"/>
			<point x="73" y="7"/>
			<point x="103" y="0"/>
			<point x="128" y="0" type="curve" smooth="yes"/>
			<point x="185" y="0"/>
			<point x="231" y="35"/>
			<point x="231" y="138" type="curve" smooth="yes"/>
			<point x="231" y="680" type="line"/>
		</contour>
		<contour>
			<point x="163" y="782" type="move"/>
			<point x="298" y="915" type="line"/>
		</contour>
	</outline>
</glyph>
<glyph name="uni013C.ss02" format="2">
	<advance width="270"/>
	<outline>
		<contour>
			<point x="140" y="0" type="move"/>
			<point x="140" y="745" type="line"/>
		</contour>
		<contour>
			<point x="60" y="-240" type="move"/>
			<point x="138" y="-85" type="line"/>
		</contour>
	</outline>
</glyph>
<glyph name="uni2070.zero" format="2">
	<advance width="311"/>
	<outline>
		<contour>
			<point x="79" y="444.5" type="move"/>
			<point x="234.5" y="701" type="line"/>
		</contour>
		<contour>
			<point x="155" y="745" type="move"/>
			<point x="81" y="745"/>
			<point x="45" y="668.5"/>
			<point x="45" y="573.5" type="curve" smooth="yes"/>
			<point x="45" y="477.5"/>
			<point x="81" y="405"/>
			<point x="155.5" y="405" type="curve" smooth="yes"/>
			<point x="230" y="405"/>
			<point x="266" y="477.5"/>
			<point x="266" y="573.5" type="curve" smooth="yes"/>
			<point x="266" y="668.5"/>
			<point x="230" y="745"/>
			<point x="156" y="745" type="curve"/>
		</contour>
	</outline>
</glyph>
<glyph name="y.ss03" format="2">
	<advance width="606"/>
	<outline>
		<contour>
			<point x="466" y="155" type="move"/>
			<point x="426" y="87"/>
			<point x="354" y="20"/>
			<point x="266" y="20" type="curve" smooth="yes"/>
			<point x="188" y="20"/>
			<point x="138" y="73"/>
			<point x="138" y="170" type="curve" smooth="yes"/>
			<point x="138" y="555" type="line"/>
		</contour>
		<contour>
			<point x="120" y="-107" type="move"/>
			<point x="154" y="-164"/>
			<point x="211" y="-190"/>
			<point x="285" y="-190" type="curve" smooth="yes"/>
			<point x="400" y="-190"/>
			<point x="466" y="-126"/>
			<point x="466" y="-2" type="curve" smooth="yes"/>
			<point x="466" y="555" type="line"/>
		</contour>
	</outline>
</glyph>
<glyph name="ycircumflex.ss03" format="2">
	<advance width="606"/>
	<outline>
		<contour>
			<point x="466" y="155" type="move"/>
			<point x="426" y="87"/>
			<point x="354" y="20"/>
			<point x="266" y="20" type="curve" smooth="yes"/>
			<point x="188" y="20"/>
			<point x="138" y="73"/>
			<point x="138" y="170" type="curve" smooth="yes"/>
			<point x="138" y="555" type="line"/>
		</contour>
		<contour>
			<point x="120" y="-107" type="move"/>
			<point x="154" y="-164"/>
			<point x="211" y="-190"/>
			<point x="285" y="-190" type="curve" smooth="yes"/>
			<point x="400" y="-190"/>
			<point x="466" y="-126"/>
			<point x="466" y="-2" type="curve" smooth="yes"/>
			<point x="466" y="555" type="line"/>
		</contour>
		<contour>
			<point x="405" y="648" type="move"/>
			<point x="296" y="774" type="line"/>
			<point x="292" y="774" type="line"/>
			<point x="183" y="648" type="line"/>
		</contour>
	</outline>
</glyph>
<glyph name="zero.numr.zero" format="2">
	<advance width="311"/>
	<outline>
		<contour>
			<point x="79" y="379.5" type="move"/>
			<point x="234.5" y="636" type="line"/>
		</contour>
		<contour>
			<point x="155" y="680" type="move"/>
			<point x="81" y="680"/>
			<point x="45" y="603.5"/>
			<point x="45" y="508.5" type="curve" smooth="yes"/>
			<point x="45" y="412.5"/>
			<point x="81" y="340"/>
			<point x="155.5" y="340" type="curve" smooth="yes"/>
			<point x="230" y="340"/>
			<point x="266" y="412.5"/>
			<point x="266" y="508.5" type="curve" smooth="yes"/>
			<point x="266" y="603.5"/>
			<point x="230" y="680"/>
			<point x="156" y="680" type="curve"/>
		</contour>
	</outline>
</glyph>
